<svg width="417" height="300" viewBox="0 0 417 300" fill="none" xmlns="http://www.w3.org/2000/svg">
<path d="M0.0500006 300V239.438H56.974V71.234L0.0500006 87.284V20.73L77.09 0.39998H117.322V239.438H175.102V300H0.0500006ZM18.026 283.95H156.912V256.558H101.058V16.878H81.156L16.528 34.64V65.028L73.666 48.336V256.558H18.026V283.95ZM251.447 300L207.363 255.916V44.484L251.447 0.39998H371.929L416.013 44.484V255.916L371.929 300H251.447ZM289.539 239.438H346.677L359.731 226.384V120.668L289.539 239.438ZM274.131 255.488L267.925 246.5L366.579 74.23L374.711 79.58V233.874L352.883 255.488H274.131ZM258.509 282.88H364.225L399.963 247.142V52.188L364.225 16.45H258.509L222.77 52.188V247.142L258.509 282.88ZM248.237 217.824V65.456L269.851 44.056H347.319L353.097 52.83L255.941 222.96L248.237 217.824ZM263.645 175.024L331.055 60.962H276.913L263.645 74.016V175.024Z" fill="#DBDBDB"/>
</svg>
