<svg width="200" height="300" viewBox="0 0 200 300" fill="none" xmlns="http://www.w3.org/2000/svg">
<path d="M0.0500006 300V176.522L44.134 132.438H125.668L138.722 119.384V74.016L125.668 60.962H73.452L60.398 74.016V104.618H0.0500006V44.484L44.134 0.39998H154.986L199.07 44.484V148.916L154.986 193H73.452L60.398 206.054V239.438H199.07V300H0.0500006ZM17.17 283.522H181.094V256.13H44.776V197.28L66.39 175.666H146.64L182.806 139.5V51.76L147.068 16.022H53.122L17.17 51.76V88.354H44.776V65.028L66.39 43.414H133.586L155.414 65.028V126.232L133.158 148.274H53.122L17.17 184.012V283.522Z" fill="#DBDBDB"/>
</svg>
