<svg width="198" height="300" viewBox="0 0 198 300" fill="none" xmlns="http://www.w3.org/2000/svg">
<path d="M44.134 300L0.0500006 255.916V197.922H60.398V226.384L73.452 239.438H124.17L137.224 226.384V193.642L124.17 180.588H77.946V120.24H123.956L137.224 105.902V74.016L124.17 60.962H73.452L60.398 74.016V102.478H0.0500006V44.484L44.134 0.39998H153.488L197.572 44.484V136.718L184.09 150.2L197.572 164.11V255.916L153.488 300H44.134ZM52.266 282.88H145.57L181.308 247.142V172.67L158.838 150.414L181.308 127.73V52.188L145.57 16.45H52.266L16.314 52.188V87.926H43.92V65.456L65.534 44.056H132.088L153.916 65.456V114.034L131.66 136.504H91.856V163.896H131.66L153.916 185.938V233.874L132.088 255.488H65.534L43.92 233.874V212.26H16.314V247.142L52.266 282.88Z" fill="#DBDBDB"/>
</svg>
