<svg width="201" height="300" viewBox="0 0 201 300" fill="none" xmlns="http://www.w3.org/2000/svg">
<path d="M44.134 300L0.0500006 255.916V201.988H60.398V226.384L73.452 239.438H126.952L140.006 226.384V162.398L126.952 149.344H75.592L57.188 169.888H0.0500006V0.39998H199.284V60.962H60.398V95.202L66.818 88.782H156.27L200.354 133.08V255.916L156.27 300H44.134ZM53.336 283.736H148.138L184.09 247.784V140.784L148.138 104.618H68.744L50.768 122.594H44.348V44.056H182.806V16.45H16.956V153.41H51.41L71.74 132.224H134.656L156.698 153.838V234.516L134.656 256.344H66.818L43.706 233.446V215.042H16.314V246.714L53.336 283.736Z" fill="#DBDBDB"/>
</svg>
