<svg width="200" height="300" viewBox="0 0 200 300" fill="none" xmlns="http://www.w3.org/2000/svg">
<path d="M44.134 300L0.0500006 255.916V44.484L44.134 0.39998H154.13L198.428 44.484V90.066H137.866V74.016L124.812 60.962H73.452L60.398 74.016V103.548L66.818 97.128H155.414L199.498 141.212V255.916L155.414 300H44.134ZM66.604 255.702L43.92 233.446V170.744L74.308 140.998H133.8L155.842 162.612V234.088L133.8 255.702H66.604ZM73.452 239.438H126.096L139.15 226.384V170.744L126.096 157.69H77.732L60.398 174.81V226.384L73.452 239.438ZM53.122 283.308H147.282L183.234 247.356V149.344L147.282 113.392H70.028L43.92 139.286V65.456L65.962 44.056H132.516L154.13 65.456V77.44H181.736V52.188L145.784 16.45H52.48L16.528 52.188V246.714L53.122 283.308Z" fill="#DBDBDB"/>
</svg>
