<svg width="200" height="300" viewBox="0 0 200 300" fill="none" xmlns="http://www.w3.org/2000/svg">
<path d="M44.134 300L0.0500006 255.916V164.538L19.31 146.134L0.0500006 127.088V44.484L44.134 0.39998H154.986L199.07 44.484V127.088L179.81 146.562L199.07 164.538V255.916L154.986 300H44.134ZM65.962 255.702L44.348 234.088V181.658L66.39 159.83H133.158L155.414 181.658V234.088L133.586 255.702H65.962ZM52.694 283.094H147.068L182.806 247.356V170.316L157.982 146.134L182.806 121.31V52.83L147.068 17.092H52.694L16.742 52.83V121.31L41.78 145.92L16.742 170.316V247.356L52.694 283.094ZM66.39 132.224L44.348 109.754V66.098L65.962 44.484H133.586L155.414 66.098V109.754L133.158 132.224H66.39ZM73.452 239.438H125.668L138.722 226.384V189.576L125.668 176.522H73.452L60.398 189.576V226.384L73.452 239.438ZM73.666 115.96H125.454L138.722 101.836V74.016L125.668 60.962H73.452L60.398 74.016V101.836L73.666 115.96Z" fill="#DBDBDB"/>
</svg>
