<svg width="200" height="300" viewBox="0 0 200 300" fill="none" xmlns="http://www.w3.org/2000/svg">
<path d="M155.414 0.39998L199.498 44.484V255.916L155.414 300H45.418L1.12 255.916V210.334H61.682V226.384L74.736 239.438H126.096L139.15 226.384V196.852L132.73 203.272H44.134L0.0500006 159.188V44.484L44.134 0.39998H155.414ZM132.944 44.698L155.628 66.954V129.656L125.24 159.402H65.748L43.706 137.788V66.312L65.748 44.698H132.944ZM126.096 60.962H73.452L60.398 74.016V129.656L73.452 142.71H121.816L139.15 125.59V74.016L126.096 60.962ZM146.426 17.092H52.266L16.314 53.044V151.056L52.266 187.008H129.52L155.628 161.114V234.944L133.586 256.344H67.032L45.418 234.944V222.96H17.812V248.212L53.764 283.95H147.068L183.02 248.212V53.686L146.426 17.092Z" fill="#DBDBDB"/>
</svg>
