<svg width="200" height="300" viewBox="0 0 200 300" fill="none" xmlns="http://www.w3.org/2000/svg">
<rect width="200" height="300" fill="#434445"/>
<path d="M99.9996 235.38C146.624 235.38 185.38 196.708 185.38 150C185.38 103.376 146.54 64.6204 99.9161 64.6204C53.2082 64.6204 14.6204 103.376 14.6204 150C14.6204 196.708 53.2921 235.38 99.9996 235.38ZM99.9996 178.544C74.8043 178.544 55.3846 187.5 46.9304 197.545C35.7139 184.989 28.9336 168.331 28.9336 150C28.9336 110.575 60.4071 78.8504 99.9161 78.8504C139.341 78.8504 171.065 110.575 171.15 150C171.15 168.415 164.369 185.072 153.069 197.628C144.615 187.584 125.195 178.544 99.9996 178.544ZM99.9996 164.314C116.071 164.481 128.711 150.753 128.711 132.757C128.711 115.848 115.988 101.786 99.9996 101.786C83.9282 101.786 71.1214 115.848 71.2889 132.757C71.3725 150.753 83.8446 164.146 99.9996 164.314Z" fill="black"/>
</svg>
